<svg width="110" height="110" viewBox="0 0 110 110" fill="none" xmlns="http://www.w3.org/2000/svg">
<mask id="mask0_199_1573" style="mask-type:alpha" maskUnits="userSpaceOnUse" x="0" y="0" width="110" height="110">
<circle cx="55" cy="55" r="55" fill="#D9D9D9"/>
</mask>
<g mask="url(#mask0_199_1573)">
<circle cx="55" cy="55" r="55" fill="#21B7B6"/>
<path d="M100.28 110H9.77835C7.78248 103.432 10.8221 94.7967 16.6213 91.7265C23.1945 88.249 29.9815 85.1687 36.7328 82.0323C38.2704 81.3195 39.6401 80.8001 39.5688 78.7534C39.5484 78.234 39.8946 77.5874 40.2663 77.1801C42.3997 74.8736 42.6593 73.3513 41.3254 70.4644C41.0759 69.9298 40.7602 69.385 40.6838 68.8147C40.246 65.5002 38.9476 62.766 37.0332 59.874C35.297 57.257 35.5923 53.2602 35.1901 49.8438C35.1493 49.4874 36.4324 48.9731 37.0739 48.5505C37.0739 45.1901 36.743 41.3766 37.1452 37.6394C37.9191 30.5215 41.3152 24.987 48.5808 23.0268C55.9125 21.0462 63.005 21.5859 68.4478 27.7262C72.4039 32.1864 73.1829 37.7158 72.6941 43.4641C72.5465 45.2309 72.1901 46.9772 71.8948 48.9578C72.6432 48.9018 73.3204 48.8458 73.9568 48.8C74.1096 49.0088 74.2878 49.1411 74.2827 49.2633C74.0994 52.2062 73.967 55.1542 73.6463 58.0767C73.5495 58.9474 73.132 60.149 72.4701 60.5258C69.4814 62.2416 69.7614 65.2354 69.2116 67.939C68.7482 70.22 68.0761 72.4603 67.7146 74.7514C67.623 75.3268 68.3511 76.0498 68.7533 76.6709C69.1963 77.3532 70.0873 77.9947 70.0975 78.6566C70.1178 80.8358 71.5944 81.3704 73.1829 82.0985C79.1044 84.8174 84.8934 87.8519 90.8963 90.362C97.3931 93.0809 99.9184 98.096 100.26 104.674C100.346 106.354 100.275 108.045 100.275 109.995L100.28 110Z" fill="white"/>
<circle cx="55" cy="55" r="54.5" stroke="#F4F0EB"/>
</g>
</svg>
