<svg width="40" height="40" viewBox="0 0 40 40" fill="none" xmlns="http://www.w3.org/2000/svg">
<g clip-path="url(#clip0_623_2589)">
<path d="M19.1931 15.7667C20.126 14.7983 20.9629 13.8843 21.8498 13.0182C24.8132 10.1216 27.9269 7.40647 31.4434 5.18808C33.1421 4.1154 35.4273 4.39505 36.8005 5.83294C37.9107 6.99535 37.9024 7.74455 36.7254 8.83601C34.2524 11.1275 31.7397 13.3792 29.298 15.7041C27.8142 17.1169 26.4202 18.6258 25.0157 20.12C24.0327 21.1655 24.0557 21.2281 25.0678 22.1986C26.7478 23.8118 28.4069 25.45 30.1223 27.0235C30.8653 27.7059 30.978 28.428 30.5502 29.2607C30.2517 29.8409 29.9324 30.4398 29.4963 30.9156C28.2045 32.318 27.2341 32.4996 25.6376 31.4728C23.6258 30.181 21.6995 28.7536 19.6126 27.299C19.4373 27.5098 19.1347 27.7811 18.9385 28.1171C17.0874 31.26 15.2384 34.405 13.4228 37.5687C12.7592 38.727 12.2479 39.088 10.9832 38.5976C9.60375 38.0612 8.29525 37.3225 7.00344 36.5879C6.30015 36.1872 6.00798 35.4317 6.35024 34.6825C7.37283 32.4516 8.35994 30.1894 9.58288 28.067C10.6368 26.2388 11.9745 24.5693 13.2246 22.858C14.1595 21.5746 14.0948 21.6581 13.2162 20.3934C11.9119 18.5172 10.5971 16.6202 9.57244 14.5876C8.37038 12.198 9.56201 9.38696 11.9766 8.21411C12.682 7.87186 13.164 8.1202 13.5939 8.67949C15.1424 10.6892 16.6951 12.6968 18.254 14.6982C18.5045 15.0196 18.7904 15.3117 19.1931 15.7667Z" fill="#21B7B6"/>
<path d="M4.56408 32.4433C-1.5986 26.6041 -1.4546 14.2683 4.59747 7.06214C12.0624 -1.82814 23.8702 -1.25633 29.9828 2.93212C29.2294 3.48724 28.5699 4.11332 27.7915 4.48479C27.4263 4.66009 26.7919 4.42636 26.3369 4.23853C18.296 0.932852 8.83391 4.4347 5.05659 12.269C2.50637 17.5573 2.56898 22.9561 5.10876 28.2548C5.57206 29.219 5.80579 29.987 5.21102 30.9282C4.93763 31.3581 4.80198 31.8735 4.56408 32.4454V32.4433Z" fill="#21B7B6"/>
<path d="M37.7704 11.284C40.9655 16.7851 40.8883 25.8716 35.5812 32.5205C30.101 39.3823 20.9206 41.2188 15.3652 39.2654C15.6699 38.6769 15.9099 38.055 16.2981 37.5437C16.4713 37.3162 16.968 37.1806 17.2769 37.2348C28.5942 39.2738 39.7906 28.9331 36.1384 15.149C35.5165 12.8012 35.5604 12.5779 37.7725 11.2819L37.7704 11.284Z" fill="#21B7B6"/>
</g>
<defs>
<clipPath id="clip0_623_2589">
<rect width="39.9228" height="40" fill="white"/>
</clipPath>
</defs>
</svg>
