<svg width="16" height="18" viewBox="0 0 16 18" fill="none" xmlns="http://www.w3.org/2000/svg">
<path d="M11.5826 0.309572V3.51576H14.7896L11.5826 0.309572Z" fill="#FA6559"/>
<path d="M9.08455 6.74965H6.91345C6.71372 7.10027 6.44011 7.40325 6.11161 7.63757C5.78311 7.8719 5.40757 8.03198 5.01104 8.1067V10.6379C5.00678 11.5593 5.29334 12.4584 5.8299 13.2074C6.36647 13.9564 7.12568 14.5169 7.9994 14.8092C8.87313 14.5169 9.63234 13.9564 10.1689 13.2074C10.7055 12.4584 10.992 11.5593 10.9878 10.6379V8.1067C10.5911 8.03208 10.2154 7.87205 9.88675 7.63772C9.5581 7.40339 9.28437 7.10036 9.08455 6.74965ZM9.86365 10.1681L7.87618 12.1556C7.82723 12.2046 7.7691 12.2434 7.70513 12.2699C7.64115 12.2965 7.57258 12.3101 7.50332 12.3101C7.43407 12.3101 7.36551 12.2965 7.30153 12.2699C7.23756 12.2434 7.17943 12.2046 7.13048 12.1556L6.13594 11.161C6.03706 11.0622 5.98151 10.928 5.98151 10.7882C5.98151 10.6483 6.03706 10.5142 6.13594 10.4153C6.23483 10.3165 6.36895 10.2609 6.5088 10.2609C6.64865 10.2609 6.78276 10.3165 6.88165 10.4153L7.50332 11.037L9.11875 9.4216C9.16771 9.37264 9.22583 9.33381 9.2898 9.30731C9.35378 9.28081 9.42235 9.26717 9.49159 9.26717C9.56084 9.26717 9.6294 9.28081 9.69337 9.30731C9.75735 9.33381 9.81548 9.37264 9.86444 9.4216C9.9134 9.47057 9.95225 9.52869 9.97875 9.59267C10.0052 9.65664 10.0189 9.72521 10.0189 9.79446C10.0189 9.8637 10.0052 9.93227 9.97875 9.99624C9.95225 10.0602 9.9134 10.1183 9.86444 10.1673L9.86365 10.1681Z" fill="#FA6559"/>
<path d="M10.9119 4.57064C10.8414 4.5719 10.7713 4.55927 10.7058 4.53346C10.6402 4.50766 10.5803 4.46918 10.5296 4.42023C10.4789 4.37129 10.4383 4.31283 10.4102 4.2482C10.3821 4.18357 10.3669 4.11403 10.3657 4.04356V0.000249748H2.90315C2.38153 -0.00804998 1.8779 0.190807 1.50266 0.55323C1.12743 0.915652 0.911192 1.41207 0.901367 1.93366V16.0662C0.911192 16.5878 1.12743 17.0842 1.50266 17.4466C1.8779 17.809 2.38153 18.0079 2.90315 17.9996H13.0965C13.6181 18.0079 14.1217 17.809 14.497 17.4466C14.8722 17.0842 15.0884 16.5878 15.0983 16.0662V4.57064H10.9119ZM12.1838 10.638C12.1847 11.8186 11.7913 12.9658 11.0661 13.8974C10.3315 14.8489 9.31112 15.5397 8.15484 15.8682C8.05227 15.8979 7.94338 15.8979 7.84081 15.8682C6.68453 15.5397 5.66413 14.8489 4.92957 13.8974C4.20435 12.9658 3.81097 11.8186 3.81182 10.638V7.63213C3.81306 7.56166 3.82817 7.49212 3.85629 7.42749C3.88441 7.36286 3.92499 7.3044 3.97571 7.25546C4.02643 7.20651 4.08629 7.16804 4.15188 7.14223C4.21747 7.11642 4.2875 7.10379 4.35797 7.10506C4.69051 7.1085 5.01755 7.02016 5.30312 6.84974C5.58869 6.67933 5.82172 6.43345 5.97657 6.13915L6.05607 5.99048C6.103 5.90189 6.17331 5.82785 6.25937 5.77641C6.34543 5.72497 6.44393 5.6981 6.54419 5.69872H9.45623C9.55649 5.6981 9.65499 5.72497 9.74105 5.77641C9.82711 5.82785 9.89742 5.90189 9.94435 5.99048L10.0239 6.13915C10.1787 6.43345 10.4117 6.67933 10.6973 6.84974C10.9829 7.02016 11.3099 7.1085 11.6424 7.10506C11.7129 7.10379 11.783 7.11642 11.8485 7.14223C11.9141 7.16804 11.974 7.20651 12.0247 7.25546C12.0754 7.3044 12.116 7.36286 12.1441 7.42749C12.1722 7.49212 12.1874 7.56166 12.1886 7.63213L12.1838 10.638Z" fill="#FA6559"/>
</svg>
