<svg width="36" height="36" viewBox="0 0 36 36" fill="none" xmlns="http://www.w3.org/2000/svg">
<path d="M17.9985 0C20.4358 0 22.7589 0.486289 24.8827 1.36512L24.915 1.37977C27.1033 2.29083 29.0748 3.62373 30.7241 5.27594C32.3821 6.93108 33.718 8.91431 34.6319 11.1202C35.5137 13.2411 35.9971 15.5671 35.9971 18.0015C35.9971 20.4358 35.5108 22.7618 34.6319 24.8857L34.6173 24.9179C33.7033 27.1062 32.3733 29.0777 30.7211 30.727C29.066 32.3851 27.0828 33.7209 24.8769 34.6349C22.756 35.5166 20.43 36 17.9956 36C15.5612 36 13.2353 35.5137 11.1114 34.6349L11.0792 34.6202C8.89088 33.7092 6.91936 32.3763 5.27008 30.727V30.7211C3.61494 29.0631 2.27911 27.0828 1.36512 24.8827C0.486289 22.7589 0 20.4358 0 17.9985C0 15.5612 0.486289 13.2382 1.36512 11.1143L1.37977 11.0821C2.29083 8.89381 3.62373 6.92229 5.27301 5.27301H5.27594C6.93401 3.61494 8.91431 2.27911 11.1173 1.36512C13.2382 0.486289 15.5612 0 17.9985 0ZM4.97713 27.6745L5.04744 27.6335C6.77582 26.6697 11.2754 26.3504 13.1444 25.0468C13.2821 24.8417 13.4286 24.5429 13.5721 24.2178C13.786 23.7285 13.9823 23.1924 14.1053 22.8292C13.5839 22.214 13.1356 21.5197 12.708 20.8372L11.293 18.5844C10.7774 17.8111 10.5079 17.108 10.4904 16.528C10.4816 16.2555 10.5284 16.0094 10.631 15.7897C10.7364 15.5612 10.8976 15.3708 11.1173 15.2243C11.2198 15.154 11.334 15.0955 11.46 15.0515C11.3663 13.8299 11.334 12.292 11.3926 11.003C11.4219 10.6983 11.4834 10.3908 11.5655 10.0861C11.9287 8.79421 12.8339 7.75425 13.9559 7.03947C14.574 6.64399 15.2536 6.34812 15.9596 6.14891C16.4108 6.02002 15.5759 4.58459 16.0417 4.53479C18.2885 4.30336 21.924 6.3569 23.4942 8.05306C24.2793 8.9026 24.7744 10.0304 24.8798 11.5215L24.7919 15.1951C25.1845 15.3152 25.4364 15.5642 25.536 15.9655C25.6503 16.4137 25.5272 17.0406 25.1464 17.8989C25.1464 17.8989 25.1317 17.9312 25.123 17.9458L23.5088 20.6028C22.9171 21.5783 22.3136 22.5597 21.5315 23.3301C21.6047 23.4356 21.6779 23.5381 21.7482 23.6407C22.0675 24.1094 22.3898 24.5781 22.8028 24.997C22.8175 25.0116 22.8292 25.0263 22.838 25.0409C24.6953 26.3533 29.2154 26.6726 30.9496 27.6394L31.0199 27.6804C33.0325 24.9794 34.2218 21.6311 34.2218 18.0044C34.2218 13.5253 32.4056 9.46798 29.4703 6.5356C26.5408 3.59736 22.4835 1.78111 18.0044 1.78111C13.5253 1.78111 9.46798 3.59736 6.5356 6.53267C3.59443 9.46212 1.77818 13.5194 1.77818 17.9985C1.77818 21.6252 2.96753 24.9736 4.97713 27.6745Z" fill="white"/>
</svg>
