<svg width="36" height="36" viewBox="0 0 36 36" fill="none" xmlns="http://www.w3.org/2000/svg">
<g clip-path="url(#clip0_518_1036)">
<path d="M10.1201 20.3464C10.956 20.3593 12.1391 20.52 13.2643 21.0343C14.1451 21.4329 14.891 22.0114 15.5082 22.7443C15.8233 23.1171 16.1833 23.3871 16.6527 23.5221C17.1607 23.6636 17.6686 23.8114 18.1766 23.9336C18.2666 23.9529 18.3887 23.9079 18.4723 23.8564C19.9383 22.95 21.3914 22.0307 22.8638 21.1307C23.8926 20.5007 25.0049 20.2243 26.2073 20.4364C26.8374 20.5457 27.3839 20.835 27.8597 21.2529C27.9819 21.3621 28.0719 21.3621 28.2198 21.3171C29.4993 20.9443 30.6888 21.1114 31.6983 22.0307C31.9104 22.2236 32.0519 22.2686 32.3155 22.1786C33.0356 21.9343 33.7751 21.8636 34.508 22.14C36.0319 22.7121 36.4691 24.4864 35.4146 25.8107C34.926 26.4279 34.3023 26.8843 33.6529 27.3086C30.7724 29.1857 27.8983 31.0693 25.0114 32.9336C23.854 33.6793 22.6709 34.38 21.5136 35.1129C19.7711 36.2186 17.9644 36.2507 16.1319 35.415C14.8202 34.8171 13.5343 34.1357 12.2419 33.4929C11.136 32.94 10.0301 32.3871 8.93062 31.815C8.24264 31.455 7.62539 31.5321 6.99528 31.9629C6.35231 32.4064 5.68361 32.8114 5.02135 33.2293C4.73845 33.4093 4.44268 33.4671 4.14691 33.2614C3.85757 33.0621 3.71612 32.7793 3.79328 32.4386C3.82543 32.2843 3.92187 32.0914 4.04404 32.0079C4.96349 31.4164 5.87008 30.8057 6.8281 30.285C7.7347 29.79 8.67343 29.9507 9.56074 30.3879C11.0589 31.1336 12.5441 31.8986 14.0358 32.6443C14.9167 33.0879 15.7976 33.5186 16.6784 33.9493C18.093 34.6371 19.4496 34.5793 20.7935 33.705C22.7931 32.4064 24.8378 31.1593 26.8438 29.8671C28.9463 28.5171 31.036 27.1479 33.1128 25.7657C33.5114 25.5021 33.8394 25.1293 34.193 24.8014C34.2573 24.7371 34.3023 24.6471 34.3473 24.5636C34.5788 24.1264 34.3473 23.6636 33.8651 23.5607C33.3828 23.4643 32.9328 23.5929 32.4827 23.7536C31.679 24.0364 30.991 24.5121 30.2902 24.975C28.1491 26.3829 26.008 27.7971 23.8604 29.1857C23.2368 29.5907 22.5166 29.7257 21.7901 29.7321C20.2405 29.745 18.6845 29.7579 17.1349 29.7321C15.9519 29.7129 14.7881 29.5007 13.6372 29.2436C13.1935 29.1471 12.7499 29.0443 12.3127 28.9221C11.7404 28.7614 11.5539 28.1121 11.9397 27.6557C12.1519 27.405 12.4155 27.3536 12.7242 27.4179C13.8236 27.6364 14.9231 27.8679 16.0226 28.0607C16.5048 28.1443 16.9999 28.17 17.495 28.1764C18.8645 28.1893 20.2341 28.1957 21.6036 28.1764C22.0215 28.17 22.4523 28.0736 22.8574 27.9514C23.2496 27.8293 23.4811 27.5336 23.5004 27.09C23.5197 26.6207 23.3203 26.2993 22.9088 26.0936C22.4973 25.8943 22.0537 25.8364 21.6036 25.8364C20.3305 25.8364 19.0703 25.7464 17.8294 25.4829C16.9871 25.3093 16.1512 25.0843 15.3796 24.6921C15.0067 24.5057 14.6917 24.1907 14.3766 23.9079C13.9587 23.535 13.5922 23.0914 13.1485 22.7443C12.4927 22.2236 11.689 22.0564 10.8788 21.9729C9.88865 21.8764 8.88562 21.8379 7.92116 22.1079C7.16888 22.3264 6.43589 22.6286 5.70933 22.9371C4.18549 23.5993 2.66808 24.2871 1.15066 24.9621C0.533409 25.2386 -0.0581251 24.8014 0.0126018 24.1393C0.0447504 23.8179 0.263361 23.6443 0.526979 23.5221C1.18924 23.2136 1.84507 22.8986 2.52019 22.6093C3.79328 22.0564 5.07922 21.5293 6.35231 20.9829C7.4325 20.52 8.57056 20.3336 10.1266 20.34L10.1201 20.3464ZM25.0628 26.5307C26.8374 25.3671 28.6313 24.1907 30.4445 23.0014C30.1358 22.7893 29.8144 22.7186 29.4864 22.6993C28.9206 22.6671 28.432 22.905 27.969 23.1943C27.3646 23.5671 26.7667 23.9464 26.1623 24.3193C25.6029 24.6664 25.0435 25.0136 24.5227 25.335C24.7027 25.74 24.8763 26.1257 25.0628 26.5371V26.5307ZM20.9028 24.1907C20.9028 24.1907 20.9156 24.2357 20.9221 24.2614C21.1149 24.2614 21.3078 24.2486 21.5007 24.2614C21.9315 24.3 22.3623 24.3321 22.7931 24.4029C22.9474 24.4286 23.0503 24.4029 23.1725 24.3321C23.8154 23.9271 24.4648 23.5286 25.1078 23.13C25.5965 22.8279 26.0915 22.5193 26.5931 22.2043C26.1944 21.9664 25.7829 21.9086 25.3586 21.9407C24.6899 21.9921 24.079 22.2107 23.5068 22.5643C22.6388 23.1107 21.7643 23.6507 20.8899 24.1907H20.9028Z" fill="#21B7B6"/>
<path d="M17.9968 20.3464C17.6303 20.3464 17.2574 20.3464 16.8909 20.3464C16.3894 20.34 16.1 20.0764 16.0229 19.5879C15.9071 18.8807 15.7914 18.1736 15.6628 17.4729C15.65 17.3957 15.5599 17.3057 15.4828 17.2671C15.232 17.145 14.9684 17.0357 14.7048 16.9393C14.6405 16.9136 14.5312 16.9136 14.4797 16.9521C13.9011 17.3443 13.3224 17.7429 12.7501 18.1479C12.2808 18.4821 11.9336 18.4629 11.5156 18.0514C10.9948 17.5371 10.4869 17.01 9.97251 16.4893C9.66388 16.1743 9.63174 15.8079 9.88892 15.4479C10.3069 14.8564 10.7312 14.2714 11.162 13.6929C11.2456 13.5771 11.2585 13.4936 11.1942 13.365C11.0784 13.1336 10.982 12.8893 10.8984 12.645C10.8534 12.51 10.7891 12.465 10.6605 12.4393C9.94036 12.3107 9.22023 12.1821 8.50653 12.0471C8.10146 11.97 7.84427 11.6614 7.8507 11.25C7.8507 10.485 7.8507 9.71357 7.86356 8.94857C7.86356 8.53071 8.10789 8.22857 8.52582 8.15786C9.22023 8.03571 9.90821 7.93286 10.6026 7.82357C10.7762 7.79786 10.9048 7.75286 10.9498 7.54714C10.9884 7.36071 11.072 7.16786 11.1749 7.00714C11.3163 6.78857 11.2649 6.62786 11.1234 6.42857C10.7312 5.88857 10.3583 5.33571 9.98537 4.78286C9.72818 4.40357 9.76033 4.04357 10.0754 3.72214C10.6155 3.17571 11.162 2.64214 11.715 2.10857C12.0107 1.81929 12.3837 1.78714 12.7244 2.025C13.3224 2.44286 13.9139 2.87357 14.5055 3.30429C14.6148 3.38143 14.6984 3.39429 14.8141 3.33643C15.0648 3.22071 15.322 3.13714 15.5728 3.015C15.65 2.97643 15.7335 2.88643 15.7464 2.80929C15.8879 2.09571 16.0164 1.37571 16.145 0.655714C16.2222 0.244286 16.518 0 16.9488 0C17.6882 0 18.4276 0 19.167 0C19.6878 0 19.9836 0.276429 20.0607 0.790714C20.1636 1.47857 20.2794 2.16 20.3822 2.84786C20.4015 2.97643 20.4594 3.04071 20.5815 3.08571C20.8323 3.17571 21.0831 3.27857 21.321 3.40071C21.4303 3.45857 21.501 3.43929 21.591 3.375C22.1633 2.95714 22.7484 2.55214 23.3206 2.14071C23.7193 1.85143 24.105 1.87714 24.4522 2.22429C24.9795 2.75143 25.5067 3.285 26.0275 3.81857C26.3426 4.14 26.3683 4.52571 26.1047 4.89857C25.6867 5.49 25.2688 6.08143 24.8445 6.66643C24.7737 6.76286 24.7544 6.83357 24.8123 6.95571C24.928 7.19357 25.0309 7.44429 25.1145 7.70143C25.1595 7.83643 25.2302 7.88143 25.3588 7.90071C26.0725 8.01643 26.7862 8.13857 27.4999 8.26071C27.9243 8.33143 28.1943 8.64 28.1943 9.07071C28.1943 9.80357 28.1943 10.5364 28.1815 11.2629C28.1815 11.8286 27.9371 12.0921 27.3842 12.1821C26.6898 12.2914 26.0018 12.4071 25.3074 12.5357C25.2302 12.5486 25.1402 12.6321 25.1016 12.7093C24.9795 12.9536 24.8895 13.2171 24.7737 13.4614C24.7223 13.5707 24.7416 13.6414 24.8059 13.7314C25.2238 14.31 25.6417 14.895 26.0532 15.48C26.3554 15.9107 26.3169 16.2707 25.9375 16.6436C25.4231 17.145 24.9152 17.6529 24.4072 18.1543C24.0536 18.5014 23.7 18.54 23.2949 18.2636C22.7034 17.8521 22.1118 17.4343 21.5267 17.01C21.4174 16.9329 21.3403 16.92 21.2181 16.9779C20.9931 17.0871 20.7552 17.19 20.5173 17.2607C20.3629 17.3057 20.3179 17.3957 20.2922 17.5371C20.1765 18.2443 20.0543 18.9514 19.9386 19.6521C19.8679 20.0893 19.5785 20.3464 19.1349 20.3529C18.9484 20.3529 18.7555 20.3529 18.569 20.3529C18.3826 20.3529 18.1897 20.3529 18.0032 20.3529L17.9968 20.3464ZM24.4265 15.9043C24.0407 15.3643 23.6614 14.805 23.2627 14.265C23.0056 13.9243 22.9991 13.5964 23.1856 13.2171C23.4299 12.7286 23.6421 12.2207 23.8286 11.7064C23.9572 11.3464 24.1629 11.1279 24.5423 11.07C24.6901 11.0507 24.8445 11.0186 24.9923 10.9929C25.5324 10.9029 26.0725 10.8129 26.6191 10.7164V9.69429C25.9375 9.57857 25.2624 9.45643 24.5873 9.34714C24.2208 9.28929 23.9636 9.10286 23.8736 8.74286C23.7257 8.15786 23.4942 7.605 23.1984 7.07786C23.0313 6.78857 23.0506 6.49286 23.2435 6.21643C23.3849 6.01714 23.5264 5.81786 23.6742 5.61214C23.9443 5.23286 24.2143 4.84714 24.4651 4.5C24.2143 4.23643 23.9893 3.99857 23.7578 3.75429C23.1856 4.15929 22.6198 4.55786 22.054 4.96286C21.7646 5.16857 21.4624 5.18143 21.1602 5.00143C20.6523 4.70571 20.1186 4.46786 19.5464 4.32C19.2249 4.23643 19.0127 4.02429 18.9484 3.69643C18.8905 3.41357 18.852 3.12429 18.8069 2.84143C18.7362 2.41714 18.6719 1.98643 18.6012 1.56857H17.5853C17.5724 1.62 17.5596 1.665 17.5531 1.70357C17.4374 2.34643 17.3217 2.98286 17.1995 3.62571C17.1288 3.98571 16.9102 4.185 16.5565 4.30714C16.0357 4.48071 15.5214 4.68 15.0327 4.92429C14.6469 5.11714 14.3254 5.11071 13.9847 4.86C13.451 4.46143 12.9045 4.08214 12.3579 3.68357C12.12 3.92786 11.8821 4.17214 11.6442 4.42286C12.03 4.98214 12.4158 5.54786 12.808 6.11357C13.0202 6.41571 13.0138 6.71786 12.853 7.05214C12.6087 7.56643 12.3901 8.09357 12.1908 8.62714C12.0622 8.98071 11.8564 9.20571 11.4771 9.26357C10.8534 9.36 10.2361 9.45643 9.61245 9.56571C9.54815 9.57857 9.43884 9.63 9.43884 9.66857C9.42599 9.98357 9.43241 10.2986 9.43241 10.6136C10.1268 10.7421 10.8019 10.8707 11.4771 10.9864C11.85 11.0507 12.0493 11.2629 12.1779 11.61C12.3708 12.1371 12.5765 12.6643 12.8144 13.1721C12.9945 13.545 12.988 13.8664 12.7373 14.2007C12.3322 14.7343 11.9464 15.2871 11.5671 15.8143C11.8243 16.065 12.0622 16.2964 12.3065 16.5407C12.8787 16.1486 13.4703 15.7436 14.0618 15.3386C14.3254 15.1586 14.6083 15.1457 14.8848 15.3064C15.4121 15.6086 15.9714 15.8464 16.563 16.0007C16.878 16.0843 17.0774 16.3029 17.1352 16.6371C17.2445 17.2929 17.3538 17.9486 17.476 18.6043C17.4889 18.6686 17.566 18.7586 17.611 18.765C17.9068 18.7779 18.2026 18.7714 18.5047 18.7714C18.524 18.675 18.5433 18.6043 18.5562 18.5207C18.6591 17.91 18.7555 17.2929 18.8648 16.6821C18.9291 16.3286 19.1349 16.1164 19.4821 15.9943C20.0093 15.8014 20.5365 15.6021 21.0445 15.3643C21.4046 15.1971 21.7196 15.1907 22.0411 15.4221C22.3433 15.6471 22.6519 15.8593 22.9605 16.0779C23.2177 16.2579 23.4814 16.4379 23.745 16.6243C23.9893 16.38 24.2143 16.1486 24.4587 15.8979L24.4265 15.9043Z" fill="#21B7B6"/>
<path d="M21.9059 10.2149C21.9252 12.3749 20.1763 14.1171 17.9645 14.1363C15.8491 14.1556 14.081 12.4006 14.0617 10.2599C14.0424 8.0742 15.7591 6.3192 17.9517 6.28706C20.1313 6.25492 21.8867 7.99706 21.9059 10.2149ZM17.971 12.5742C19.2955 12.5742 20.3499 11.5199 20.3564 10.1892C20.3564 8.93563 19.2762 7.86206 18.0031 7.8492C16.685 7.84277 15.6241 8.90349 15.6241 10.2406C15.6241 11.5071 16.6914 12.5742 17.971 12.5742Z" fill="#21B7B6"/>
</g>
<defs>
<clipPath id="clip0_518_1036">
<rect width="36" height="36" fill="white"/>
</clipPath>
</defs>
</svg>
