<svg width="36" height="36" viewBox="0 0 36 36" fill="none" xmlns="http://www.w3.org/2000/svg">
<g clip-path="url(#clip0_518_1065)">
<path d="M7.73571 3.34933C8.24972 3.69648 8.88581 4.03076 9.3934 4.50005C10.1837 5.23291 10.929 5.42576 11.8221 4.71862C12.0148 4.57076 12.2654 4.43576 12.4967 4.41005C14.2187 4.23005 14.6427 3.07933 14.6492 1.60076C14.6492 0.585049 15.0604 -0.0256656 16.1783 4.87176e-05C17.4891 0.0321916 18.8062 0.0386201 20.1169 0.0450487C20.8687 0.0450487 21.2927 0.482192 21.267 1.17005C21.2028 3.11148 22.0895 4.05648 23.9463 4.69291C25.1607 5.11076 25.8931 5.09148 26.8505 4.31362C28.3989 3.06005 28.4696 3.09219 29.9859 4.44862C30.7505 5.13648 31.4187 5.93362 32.1191 6.69862C32.6524 7.28362 32.7166 7.90076 32.1384 8.50505C30.9626 9.72648 30.6477 10.8708 31.5023 12.6065C32.1641 13.9565 32.813 14.6443 34.2394 14.625C35.4216 14.6058 36.0384 15.1265 35.9999 16.3543C35.9549 17.6658 36.0127 18.99 35.8649 20.295C35.82 20.6615 35.1967 21.2336 34.8369 21.2336C32.9415 21.2529 31.9135 22.0115 31.2967 23.9208C30.9112 25.1229 30.8533 25.8558 31.6436 26.8265C32.9222 28.4015 32.8837 28.4786 31.5472 29.9636C30.8341 30.7543 30.0116 31.455 29.2149 32.1622C28.6559 32.6572 28.0455 32.6893 27.493 32.1429C26.2786 30.9408 25.135 30.6193 23.3938 31.4872C22.0638 32.1493 21.3313 32.76 21.357 34.2065C21.3763 35.37 20.9008 36.0322 19.6479 35.9872C18.3693 35.9422 17.0907 35.9358 15.8121 35.9165C15.1053 35.9036 14.707 35.4858 14.7198 34.8493C14.7584 32.8951 13.9231 31.8601 11.9827 31.2493C10.8005 30.8765 10.1066 30.87 9.16852 31.6222C7.56866 32.9079 7.49798 32.8822 5.94953 31.4808C5.18494 30.7929 4.51672 29.9893 3.82281 29.2243C3.32807 28.6715 3.25097 28.0543 3.80996 27.5079C5.09498 26.2608 5.22349 25.0715 4.46532 23.31C3.82923 21.8443 3.04537 21.3686 1.68967 21.3429C0.552417 21.3236 -0.0386949 20.8415 -0.00656921 19.6586C0.0319816 18.3472 -0.0258446 17.0229 0.115508 15.7179C0.154059 15.345 0.764446 14.7343 1.10498 14.7408C3.16744 14.7986 4.14406 13.8086 4.75445 11.8865C5.09498 10.8065 5.25561 10.0736 4.42035 9.27005C4.11836 8.97433 3.81638 8.62076 3.67503 8.23505C3.54653 7.88148 3.45015 7.28362 3.6429 7.07148C4.73518 5.86291 5.92383 4.73148 7.08677 3.58719C7.20243 3.47148 7.41446 3.45862 7.72929 3.34291L7.73571 3.34933ZM5.24276 7.47005C5.57687 7.94576 5.73107 8.28005 5.98165 8.51791C7.23455 9.73291 7.50441 10.9993 6.32861 12.4265C6.15513 12.6386 6.00735 12.9279 5.97523 13.1979C5.7118 15.3643 4.49102 16.3222 2.33218 16.2579C2.10087 16.2515 1.67039 16.7593 1.63826 17.0615C1.36841 19.5879 1.41338 19.62 3.89348 19.98C3.99629 19.9929 4.10551 20.0058 4.21474 20.0122C4.94078 20.025 5.22991 20.4558 5.45479 21.1051C5.87242 22.3136 6.36716 23.5029 6.92615 24.6472C7.23455 25.2772 7.26025 25.7593 6.81692 26.3058C6.29006 26.9615 5.82102 27.6686 5.30701 28.3822C5.75677 28.8772 6.16156 29.2822 6.52136 29.7193C7.18958 30.5422 7.87064 30.7672 8.68663 29.8929C9.7532 28.7615 10.9097 28.4658 12.2205 29.5458C12.4839 29.7643 12.8501 29.9379 13.1842 29.9893C15.3045 30.2851 16.3582 31.4229 16.2619 33.6215C16.249 33.8593 16.7437 34.3029 17.0457 34.335C19.5451 34.6243 19.6158 34.5536 19.9884 32.1043C20.0013 32.0015 20.0206 31.8922 20.0206 31.7829C20.0334 31.0629 20.4318 30.7479 21.0936 30.5229C22.3015 30.105 23.4966 29.6293 24.6338 29.0572C25.3149 28.7165 25.8096 28.7358 26.3814 29.205C27.0047 29.7193 27.6857 30.1629 28.4632 30.7286C29.3113 29.9829 30.1016 29.2886 30.8983 28.6008C30.1658 27.6558 29.7611 27.0193 29.2727 26.4536C28.733 25.8172 28.6752 25.2451 29.1314 24.5251C29.5426 23.8693 29.9988 23.1429 30.108 22.4036C30.4036 20.4365 31.5472 19.7229 33.3913 19.7743C34.0659 19.7936 34.3807 19.4979 34.4 18.7393C34.4707 16.335 34.5028 16.335 32.1384 15.9815C32.0356 15.9686 31.9263 15.9558 31.8171 15.9493C31.0397 15.9493 30.7441 15.4929 30.5128 14.7922C30.1337 13.6479 29.6904 12.51 29.1314 11.4429C28.7395 10.7036 28.7523 10.1765 29.2599 9.50791C30.8919 7.36719 30.8662 7.34791 28.778 5.62505C28.6431 5.51576 28.4889 5.43219 28.309 5.31648C27.8592 5.64433 27.3902 5.92076 27.0111 6.28719C26.0602 7.21933 25.1093 7.40576 23.9977 6.52505C23.6186 6.22291 23.1175 5.95933 22.6484 5.90148C20.541 5.63791 19.6736 4.42933 19.7507 2.37862C19.7571 2.12791 19.4808 1.65862 19.3138 1.64576C18.395 1.58791 17.4312 1.50433 16.5638 1.73576C16.2876 1.80648 16.2362 2.79648 16.1012 3.36862C16.037 3.64505 15.9856 3.92791 15.9727 4.21719C15.9406 4.88576 15.5744 5.18791 14.9511 5.40648C13.7175 5.85005 12.4903 6.33862 11.3081 6.91076C10.6656 7.22576 10.1965 7.21291 9.6504 6.76933C9.02074 6.25505 8.33967 5.79862 7.51083 5.18791C6.73339 5.95933 5.98808 6.70505 5.24276 7.45076V7.47005Z" fill="#21B7B6"/>
<path d="M24.9294 15.0558C22.9441 17.1129 21.1257 19.0222 19.2882 20.8994C18.0802 22.1401 17.9774 22.1272 16.6988 20.9444C15.9085 20.2179 15.0668 19.5494 14.3537 18.7522C14.0967 18.4694 14.1609 17.8972 14.0838 17.4601C14.5593 17.4794 15.1568 17.3251 15.4781 17.5629C16.3647 18.2122 17.1293 19.0222 18.1252 19.9351C20.631 17.3508 23.0854 14.8179 25.5527 12.2786C25.8225 11.9958 26.0859 11.6358 26.4265 11.5136C26.7285 11.4044 27.2553 11.4558 27.4545 11.6615C27.6344 11.8479 27.6537 12.5486 27.4995 12.6515C26.1759 13.5322 26.6192 14.6058 26.9341 15.7951C27.9557 19.6329 26.2723 23.6958 22.8862 25.8172C19.5452 27.9065 15.0861 27.6044 12.0856 25.0779C8.9951 22.4808 7.93495 18.1929 9.45771 14.4836C10.9869 10.7679 14.6749 8.46007 18.6392 8.80079C19.4809 8.8715 20.3226 9.09007 21.145 9.30222C21.7233 9.45007 22.2758 9.75865 22.0253 10.4979C21.7683 11.2565 21.1707 11.0894 20.5989 10.8965C17.4827 9.86793 14.7327 10.5044 12.4775 12.8829C9.91389 15.5829 9.77896 19.7229 12.0535 22.5965C14.3794 25.5344 18.3694 26.3701 21.5819 24.6022C24.8716 22.7894 26.3044 19.0286 24.9294 15.0365V15.0558Z" fill="#21B7B6"/>
</g>
<defs>
<clipPath id="clip0_518_1065">
<rect width="36" height="36" fill="white"/>
</clipPath>
</defs>
</svg>
