<svg width="40" height="40" viewBox="0 0 40 40" fill="none" xmlns="http://www.w3.org/2000/svg">
<g clip-path="url(#clip0_623_2593)">
<path d="M20.4828 22.0249C20.7199 21.5404 20.894 21.2153 21.0408 20.8777C22.4611 17.6354 23.8352 14.3722 25.3079 11.1529C26.0883 9.44792 26.9526 7.76806 27.9281 6.16789C28.9519 4.49222 30.1498 2.92351 31.2784 1.31076C32.0651 0.18456 33.1581 -0.180354 34.3937 0.354434C35.363 0.773875 36.2881 1.34431 37.1357 1.97767C37.8993 2.55021 37.8049 3.32617 37.3224 4.12101C35.8392 6.56636 34.356 9.01379 32.942 11.499C30.0218 16.6329 27.4813 21.9661 25.61 27.5573C24.6953 30.292 23.0946 31.477 20.4052 31.7559C18.2255 31.9803 17.9276 31.9342 16.8766 30.0551C15.1458 26.9617 13.4403 23.8536 11.7326 20.7456C10.8137 19.0741 9.92215 17.39 9.00118 15.7228C8.19141 14.2568 8.33406 13.548 9.76061 12.7028C10.3837 12.3337 11.0613 12.0128 11.7536 11.8094C13.7507 11.2263 15.1081 11.822 16.1004 13.7052C17.4052 16.1862 18.666 18.6903 19.9499 21.1818C20.0716 21.4188 20.2332 21.6348 20.4786 22.0228L20.4828 22.0249Z" fill="#21B7B6"/>
<path d="M27.9456 1.65889C27.5029 2.34258 27.1379 2.848 26.8379 3.38699C26.4875 4.01615 26.0617 4.16715 25.3736 3.89241C22.4282 2.71798 19.3863 2.65716 16.3066 3.21921C8.98924 4.55723 3.05857 11.6647 2.86977 19.1097C2.71662 25.1434 5.18581 29.8453 9.76335 33.5826C15.7171 38.4439 24.1379 38.6075 30.1861 34.2222C35.1454 30.6234 37.4531 25.7054 37.2685 19.5837C37.1992 17.2705 36.6223 15.1125 35.5881 13.0572C35.2147 12.3169 35.9552 10.3644 36.7293 10.1442C36.9517 10.0813 37.4216 10.3036 37.5328 10.5196C40.4341 16.1653 40.8789 21.9074 38.3153 27.8299C35.4035 34.5598 30.2931 38.5257 23.1582 39.7085C16.873 40.7487 11.3242 38.9954 6.59138 34.6081C3.1299 31.4015 1.00057 27.5279 0.272608 22.9141C-0.518287 17.8955 0.392187 13.1642 3.25997 8.92571C5.10609 6.19724 7.4536 3.95743 10.4011 2.38662C15.3017 -0.220209 20.4079 -0.65433 25.7071 0.903894C26.4036 1.10942 27.0854 1.36738 27.9456 1.65889Z" fill="#21B7B6"/>
</g>
<defs>
<clipPath id="clip0_623_2593">
<rect width="40" height="40" fill="white"/>
</clipPath>
</defs>
</svg>
